%TF.GenerationSoftware,KiCad,Pcbnew,(5.1.10)-1*%
%TF.CreationDate,2021-08-16T12:44:53+12:00*%
%TF.ProjectId,pcbOutput,7063624f-7574-4707-9574-2e6b69636164,rev?*%
%TF.SameCoordinates,Original*%
%TF.FileFunction,Copper,L1,Top*%
%TF.FilePolarity,Positive*%
%FSLAX46Y46*%
G04 Gerber Fmt 4.6, Leading zero omitted, Abs format (unit mm)*
G04 Created by KiCad (PCBNEW (5.1.10)-1) date 2021-08-16 12:44:53*
%MOMM*%
%LPD*%
G01*
G04 APERTURE LIST*
%TA.AperFunction,ComponentPad*%
%ADD10C,1.600000*%
%TD*%
%TA.AperFunction,ComponentPad*%
%ADD11O,1.600000X1.600000*%
%TD*%
%TA.AperFunction,SMDPad,CuDef*%
%ADD12R,2.500000X5.000000*%
%TD*%
%TA.AperFunction,ComponentPad*%
%ADD13O,1.000000X1.000000*%
%TD*%
%TA.AperFunction,ComponentPad*%
%ADD14R,1.000000X1.000000*%
%TD*%
%TA.AperFunction,ComponentPad*%
%ADD15O,2.400000X2.400000*%
%TD*%
%TA.AperFunction,ComponentPad*%
%ADD16R,2.400000X2.400000*%
%TD*%
%TA.AperFunction,ComponentPad*%
%ADD17C,2.175000*%
%TD*%
%TA.AperFunction,SMDPad,CuDef*%
%ADD18R,2.450000X6.850000*%
%TD*%
%TA.AperFunction,ViaPad*%
%ADD19C,0.800000*%
%TD*%
%TA.AperFunction,Conductor*%
%ADD20C,1.200000*%
%TD*%
%TA.AperFunction,Conductor*%
%ADD21C,0.800000*%
%TD*%
%TA.AperFunction,Conductor*%
%ADD22C,0.250000*%
%TD*%
G04 APERTURE END LIST*
D10*
%TO.P,R1,1*%
%TO.N,Net-(C4-Pad2)*%
X58420000Y-72390000D03*
D11*
%TO.P,R1,2*%
%TO.N,Net-(C1-Pad1)*%
X50800000Y-72390000D03*
%TD*%
D12*
%TO.P,L2,2*%
%TO.N,Net-(C2-Pad1)*%
X64670000Y-83820000D03*
%TO.P,L2,1*%
%TO.N,Net-(J5-Pad1)*%
X52170000Y-83820000D03*
%TD*%
%TO.P,L1,2*%
%TO.N,Net-(J1-Pad2)*%
X69950000Y-83820000D03*
%TO.P,L1,1*%
%TO.N,Net-(C1-Pad1)*%
X82450000Y-83820000D03*
%TD*%
D13*
%TO.P,J5,2*%
%TO.N,Net-(J5-Pad2)*%
X44450000Y-40640000D03*
D14*
%TO.P,J5,1*%
%TO.N,Net-(J5-Pad1)*%
X44450000Y-39370000D03*
%TD*%
D13*
%TO.P,J4,2*%
%TO.N,Net-(C1-Pad1)*%
X92710000Y-88900000D03*
D14*
%TO.P,J4,1*%
%TO.N,Net-(C2-Pad1)*%
X91440000Y-88900000D03*
%TD*%
D13*
%TO.P,J3,4*%
%TO.N,Net-(J3-Pad4)*%
X31750000Y-60960000D03*
%TO.P,J3,3*%
%TO.N,Net-(J3-Pad3)*%
X31750000Y-59690000D03*
%TO.P,J3,2*%
%TO.N,Net-(J3-Pad2)*%
X31750000Y-58420000D03*
D14*
%TO.P,J3,1*%
%TO.N,Net-(J3-Pad1)*%
X31750000Y-57150000D03*
%TD*%
D13*
%TO.P,J2,4*%
%TO.N,Net-(J2-Pad4)*%
X31750000Y-52070000D03*
%TO.P,J2,3*%
%TO.N,Net-(J2-Pad3)*%
X31750000Y-50800000D03*
%TO.P,J2,2*%
%TO.N,Net-(J2-Pad2)*%
X31750000Y-49530000D03*
D14*
%TO.P,J2,1*%
%TO.N,Net-(J2-Pad1)*%
X31750000Y-48260000D03*
%TD*%
D13*
%TO.P,J1,2*%
%TO.N,Net-(J1-Pad2)*%
X38100000Y-40640000D03*
D14*
%TO.P,J1,1*%
%TO.N,GND*%
X38100000Y-39370000D03*
%TD*%
D15*
%TO.P,C4,2*%
%TO.N,Net-(C4-Pad2)*%
X116440000Y-81280000D03*
D16*
%TO.P,C4,1*%
%TO.N,Net-(C2-Pad1)*%
X91440000Y-81280000D03*
%TD*%
D17*
%TO.P,C3,4*%
%TO.N,N/C*%
X67310000Y-45740000D03*
%TO.P,C3,3*%
X119810000Y-45740000D03*
%TO.P,C3,2*%
%TO.N,Net-(C1-Pad1)*%
X119810000Y-66040000D03*
%TO.P,C3,1*%
%TO.N,Net-(C2-Pad1)*%
X67310000Y-66040000D03*
%TD*%
D18*
%TO.P,C2,2*%
%TO.N,GND*%
X48260000Y-49230000D03*
%TO.P,C2,1*%
%TO.N,Net-(C2-Pad1)*%
X48260000Y-62530000D03*
%TD*%
%TO.P,C1,2*%
%TO.N,GND*%
X38100000Y-72090000D03*
%TO.P,C1,1*%
%TO.N,Net-(C1-Pad1)*%
X38100000Y-85390000D03*
%TD*%
D19*
%TO.N,GND*%
X40640000Y-39370000D03*
X53040000Y-49230000D03*
X38100000Y-77470000D03*
%TD*%
D20*
%TO.N,*%
X87630000Y-49530000D02*
X95250000Y-57150000D01*
X95250000Y-57150000D02*
X87630000Y-57150000D01*
X92710000Y-63500000D02*
X95250000Y-60960000D01*
X95250000Y-60960000D02*
X97790000Y-63500000D01*
X97790000Y-63500000D02*
X100330000Y-60960000D01*
X100330000Y-60960000D02*
X102870000Y-63500000D01*
X83820000Y-48260000D02*
X82550000Y-48260000D01*
D21*
%TO.N,GND*%
X38100000Y-39370000D02*
X40640000Y-39370000D01*
D22*
X48260000Y-49230000D02*
X53040000Y-49230000D01*
X40640000Y-39370000D02*
X40640000Y-39370000D01*
X53040000Y-49230000D02*
X53040000Y-49230000D01*
D20*
X38100000Y-72090000D02*
X38100000Y-77470000D01*
D22*
X38100000Y-77470000D02*
X38100000Y-77470000D01*
D20*
%TO.N,Net-(C1-Pad1)*%
X119810000Y-66040000D02*
X119810000Y-69010000D01*
X119810000Y-69010000D02*
X123190000Y-72390000D01*
X123190000Y-72390000D02*
X123190000Y-88900000D01*
X123190000Y-88900000D02*
X120650000Y-91440000D01*
D21*
X95250000Y-91440000D02*
X92710000Y-88900000D01*
D20*
X120650000Y-91440000D02*
X95250000Y-91440000D01*
X82450000Y-83820000D02*
X82450000Y-87530000D01*
X86360000Y-91440000D02*
X95250000Y-91440000D01*
D22*
X78740000Y-91440000D02*
X82550000Y-87630000D01*
X62230000Y-91440000D02*
X78740000Y-91440000D01*
X59690000Y-88900000D02*
X62230000Y-91440000D01*
X59690000Y-83820000D02*
X59690000Y-88900000D01*
X55880000Y-80010000D02*
X59690000Y-83820000D01*
X53340000Y-80010000D02*
X55880000Y-80010000D01*
D20*
X50800000Y-77470000D02*
X53340000Y-80010000D01*
X50800000Y-72390000D02*
X50800000Y-77470000D01*
X82550000Y-87630000D02*
X86360000Y-91440000D01*
D22*
X82450000Y-87530000D02*
X82550000Y-87630000D01*
D20*
X42880000Y-85390000D02*
X38100000Y-85390000D01*
X50800000Y-77470000D02*
X42880000Y-85390000D01*
D22*
%TO.N,Net-(C2-Pad1)*%
X64670000Y-83820000D02*
X66040000Y-83820000D01*
X48260000Y-62530000D02*
X48260000Y-60960000D01*
D20*
X48260000Y-60960000D02*
X53340000Y-55880000D01*
X53340000Y-55880000D02*
X71120000Y-55880000D01*
X71120000Y-55880000D02*
X76200000Y-60960000D01*
X76200000Y-60960000D02*
X76200000Y-64770000D01*
X74930000Y-66040000D02*
X67310000Y-66040000D01*
X76200000Y-64770000D02*
X74930000Y-66040000D01*
X67310000Y-66040000D02*
X67310000Y-72390000D01*
D22*
X64670000Y-83820000D02*
X64670000Y-81380000D01*
D20*
X67310000Y-78740000D02*
X67310000Y-72390000D01*
X64670000Y-81380000D02*
X67310000Y-78740000D01*
D21*
X91440000Y-87630000D02*
X91440000Y-88900000D01*
D20*
X92710000Y-86360000D02*
X91440000Y-87630000D01*
X95250000Y-86360000D02*
X92710000Y-86360000D01*
X97790000Y-88900000D02*
X95250000Y-86360000D01*
X120650000Y-78740000D02*
X120650000Y-79327002D01*
X119380000Y-77470000D02*
X120650000Y-78740000D01*
X110490000Y-81280000D02*
X114300000Y-77470000D01*
X114300000Y-77470000D02*
X119380000Y-77470000D01*
X91440000Y-81280000D02*
X110490000Y-81280000D01*
X110490000Y-88900000D02*
X116840000Y-88900000D01*
D22*
X111077002Y-88900000D02*
X110490000Y-88900000D01*
D20*
X110490000Y-88900000D02*
X97790000Y-88900000D01*
X116840000Y-88900000D02*
X120650000Y-85090000D01*
X120650000Y-85090000D02*
X120650000Y-80010000D01*
X76200000Y-66040000D02*
X74930000Y-66040000D01*
X91440000Y-81280000D02*
X76200000Y-66040000D01*
D22*
%TO.N,Net-(C4-Pad2)*%
X112630000Y-85090000D02*
X116440000Y-81280000D01*
X81280000Y-80010000D02*
X85090000Y-80010000D01*
X80010000Y-81280000D02*
X81280000Y-80010000D01*
X85090000Y-80010000D02*
X90170000Y-85090000D01*
X80010000Y-83820000D02*
X80010000Y-81280000D01*
X74930000Y-88900000D02*
X80010000Y-83820000D01*
X90170000Y-85090000D02*
X112630000Y-85090000D01*
X63500000Y-88900000D02*
X74930000Y-88900000D01*
X60960000Y-83820000D02*
X60960000Y-88900000D01*
X62230000Y-90170000D02*
X63500000Y-88900000D01*
X58420000Y-81280000D02*
X60960000Y-83820000D01*
X60960000Y-88900000D02*
X62230000Y-90170000D01*
X58420000Y-72390000D02*
X58420000Y-81280000D01*
%TO.N,Net-(J1-Pad2)*%
X69950000Y-83820000D02*
X69950000Y-84990000D01*
D20*
X45720000Y-68580000D02*
X41910000Y-64770000D01*
D21*
X41910000Y-44450000D02*
X38100000Y-40640000D01*
D20*
X58420000Y-68580000D02*
X45720000Y-68580000D01*
X41910000Y-64770000D02*
X41910000Y-44450000D01*
X62230000Y-72390000D02*
X58420000Y-68580000D01*
X63500000Y-87630000D02*
X62230000Y-86360000D01*
X66040000Y-87630000D02*
X63500000Y-87630000D01*
X69850000Y-83820000D02*
X66040000Y-87630000D01*
X62230000Y-86360000D02*
X62230000Y-72390000D01*
D22*
X69950000Y-83820000D02*
X69850000Y-83820000D01*
%TO.N,Net-(J5-Pad1)*%
X54610000Y-93980000D02*
X52170000Y-91540000D01*
X125462183Y-90437817D02*
X121920000Y-93980000D01*
X121920000Y-93980000D02*
X54610000Y-93980000D01*
D20*
X125462183Y-41642183D02*
X125462183Y-90437817D01*
D22*
X52170000Y-91540000D02*
X52170000Y-83820000D01*
D20*
X123190000Y-39370000D02*
X125462183Y-41642183D01*
D21*
X44450000Y-39370000D02*
X123190000Y-39370000D01*
%TD*%
M02*
