%TF.GenerationSoftware,KiCad,Pcbnew,(5.1.10)-1*%
%TF.CreationDate,2021-08-16T12:44:53+12:00*%
%TF.ProjectId,pcbOutput,7063624f-7574-4707-9574-2e6b69636164,rev?*%
%TF.SameCoordinates,Original*%
%TF.FileFunction,Copper,L2,Bot*%
%TF.FilePolarity,Positive*%
%FSLAX46Y46*%
G04 Gerber Fmt 4.6, Leading zero omitted, Abs format (unit mm)*
G04 Created by KiCad (PCBNEW (5.1.10)-1) date 2021-08-16 12:44:53*
%MOMM*%
%LPD*%
G01*
G04 APERTURE LIST*
%TA.AperFunction,ComponentPad*%
%ADD10C,1.600000*%
%TD*%
%TA.AperFunction,ComponentPad*%
%ADD11O,1.600000X1.600000*%
%TD*%
%TA.AperFunction,ComponentPad*%
%ADD12O,1.000000X1.000000*%
%TD*%
%TA.AperFunction,ComponentPad*%
%ADD13R,1.000000X1.000000*%
%TD*%
%TA.AperFunction,ComponentPad*%
%ADD14O,2.400000X2.400000*%
%TD*%
%TA.AperFunction,ComponentPad*%
%ADD15R,2.400000X2.400000*%
%TD*%
%TA.AperFunction,ComponentPad*%
%ADD16C,2.175000*%
%TD*%
%TA.AperFunction,ViaPad*%
%ADD17C,0.800000*%
%TD*%
%TA.AperFunction,Conductor*%
%ADD18C,0.254000*%
%TD*%
%TA.AperFunction,Conductor*%
%ADD19C,0.100000*%
%TD*%
G04 APERTURE END LIST*
D10*
%TO.P,R1,1*%
%TO.N,Net-(C4-Pad2)*%
X58420000Y-72390000D03*
D11*
%TO.P,R1,2*%
%TO.N,Net-(C1-Pad1)*%
X50800000Y-72390000D03*
%TD*%
D12*
%TO.P,J5,2*%
%TO.N,Net-(J5-Pad2)*%
X44450000Y-40640000D03*
D13*
%TO.P,J5,1*%
%TO.N,Net-(J5-Pad1)*%
X44450000Y-39370000D03*
%TD*%
D12*
%TO.P,J4,2*%
%TO.N,Net-(C1-Pad1)*%
X92710000Y-88900000D03*
D13*
%TO.P,J4,1*%
%TO.N,Net-(C2-Pad1)*%
X91440000Y-88900000D03*
%TD*%
D12*
%TO.P,J3,4*%
%TO.N,Net-(J3-Pad4)*%
X31750000Y-60960000D03*
%TO.P,J3,3*%
%TO.N,Net-(J3-Pad3)*%
X31750000Y-59690000D03*
%TO.P,J3,2*%
%TO.N,Net-(J3-Pad2)*%
X31750000Y-58420000D03*
D13*
%TO.P,J3,1*%
%TO.N,Net-(J3-Pad1)*%
X31750000Y-57150000D03*
%TD*%
D12*
%TO.P,J2,4*%
%TO.N,Net-(J2-Pad4)*%
X31750000Y-52070000D03*
%TO.P,J2,3*%
%TO.N,Net-(J2-Pad3)*%
X31750000Y-50800000D03*
%TO.P,J2,2*%
%TO.N,Net-(J2-Pad2)*%
X31750000Y-49530000D03*
D13*
%TO.P,J2,1*%
%TO.N,Net-(J2-Pad1)*%
X31750000Y-48260000D03*
%TD*%
D12*
%TO.P,J1,2*%
%TO.N,Net-(J1-Pad2)*%
X38100000Y-40640000D03*
D13*
%TO.P,J1,1*%
%TO.N,GND*%
X38100000Y-39370000D03*
%TD*%
D14*
%TO.P,C4,2*%
%TO.N,Net-(C4-Pad2)*%
X116440000Y-81280000D03*
D15*
%TO.P,C4,1*%
%TO.N,Net-(C2-Pad1)*%
X91440000Y-81280000D03*
%TD*%
D16*
%TO.P,C3,4*%
%TO.N,N/C*%
X67310000Y-45740000D03*
%TO.P,C3,3*%
X119810000Y-45740000D03*
%TO.P,C3,2*%
%TO.N,Net-(C1-Pad1)*%
X119810000Y-66040000D03*
%TO.P,C3,1*%
%TO.N,Net-(C2-Pad1)*%
X67310000Y-66040000D03*
%TD*%
D17*
%TO.N,GND*%
X40640000Y-39370000D03*
X53040000Y-49230000D03*
X38100000Y-77470000D03*
%TD*%
D18*
%TO.N,GND*%
X125603000Y-92273897D02*
X125473788Y-92661534D01*
X120248999Y-94403130D01*
X119314649Y-94590000D01*
X80800927Y-94590000D01*
X29337000Y-93854801D01*
X29337000Y-88400000D01*
X90301928Y-88400000D01*
X90301928Y-89400000D01*
X90314188Y-89524482D01*
X90350498Y-89644180D01*
X90409463Y-89754494D01*
X90488815Y-89851185D01*
X90585506Y-89930537D01*
X90695820Y-89989502D01*
X90815518Y-90025812D01*
X90940000Y-90038072D01*
X91940000Y-90038072D01*
X92064482Y-90025812D01*
X92184180Y-89989502D01*
X92267226Y-89945112D01*
X92378933Y-89991383D01*
X92598212Y-90035000D01*
X92821788Y-90035000D01*
X93041067Y-89991383D01*
X93247624Y-89905824D01*
X93433520Y-89781612D01*
X93591612Y-89623520D01*
X93715824Y-89437624D01*
X93801383Y-89231067D01*
X93845000Y-89011788D01*
X93845000Y-88788212D01*
X93801383Y-88568933D01*
X93715824Y-88362376D01*
X93591612Y-88176480D01*
X93433520Y-88018388D01*
X93247624Y-87894176D01*
X93041067Y-87808617D01*
X92821788Y-87765000D01*
X92598212Y-87765000D01*
X92378933Y-87808617D01*
X92267226Y-87854888D01*
X92184180Y-87810498D01*
X92064482Y-87774188D01*
X91940000Y-87761928D01*
X90940000Y-87761928D01*
X90815518Y-87774188D01*
X90695820Y-87810498D01*
X90585506Y-87869463D01*
X90488815Y-87948815D01*
X90409463Y-88045506D01*
X90350498Y-88155820D01*
X90314188Y-88275518D01*
X90301928Y-88400000D01*
X29337000Y-88400000D01*
X29337000Y-80080000D01*
X89601928Y-80080000D01*
X89601928Y-82480000D01*
X89614188Y-82604482D01*
X89650498Y-82724180D01*
X89709463Y-82834494D01*
X89788815Y-82931185D01*
X89885506Y-83010537D01*
X89995820Y-83069502D01*
X90115518Y-83105812D01*
X90240000Y-83118072D01*
X92640000Y-83118072D01*
X92764482Y-83105812D01*
X92884180Y-83069502D01*
X92994494Y-83010537D01*
X93091185Y-82931185D01*
X93170537Y-82834494D01*
X93229502Y-82724180D01*
X93265812Y-82604482D01*
X93278072Y-82480000D01*
X93278072Y-81099268D01*
X114605000Y-81099268D01*
X114605000Y-81460732D01*
X114675518Y-81815250D01*
X114813844Y-82149199D01*
X115014662Y-82449744D01*
X115270256Y-82705338D01*
X115570801Y-82906156D01*
X115904750Y-83044482D01*
X116259268Y-83115000D01*
X116620732Y-83115000D01*
X116975250Y-83044482D01*
X117309199Y-82906156D01*
X117609744Y-82705338D01*
X117865338Y-82449744D01*
X118066156Y-82149199D01*
X118204482Y-81815250D01*
X118275000Y-81460732D01*
X118275000Y-81099268D01*
X118204482Y-80744750D01*
X118066156Y-80410801D01*
X117865338Y-80110256D01*
X117609744Y-79854662D01*
X117309199Y-79653844D01*
X116975250Y-79515518D01*
X116620732Y-79445000D01*
X116259268Y-79445000D01*
X115904750Y-79515518D01*
X115570801Y-79653844D01*
X115270256Y-79854662D01*
X115014662Y-80110256D01*
X114813844Y-80410801D01*
X114675518Y-80744750D01*
X114605000Y-81099268D01*
X93278072Y-81099268D01*
X93278072Y-80080000D01*
X93265812Y-79955518D01*
X93229502Y-79835820D01*
X93170537Y-79725506D01*
X93091185Y-79628815D01*
X92994494Y-79549463D01*
X92884180Y-79490498D01*
X92764482Y-79454188D01*
X92640000Y-79441928D01*
X90240000Y-79441928D01*
X90115518Y-79454188D01*
X89995820Y-79490498D01*
X89885506Y-79549463D01*
X89788815Y-79628815D01*
X89709463Y-79725506D01*
X89650498Y-79835820D01*
X89614188Y-79955518D01*
X89601928Y-80080000D01*
X29337000Y-80080000D01*
X29337000Y-72248665D01*
X49365000Y-72248665D01*
X49365000Y-72531335D01*
X49420147Y-72808574D01*
X49528320Y-73069727D01*
X49685363Y-73304759D01*
X49885241Y-73504637D01*
X50120273Y-73661680D01*
X50381426Y-73769853D01*
X50658665Y-73825000D01*
X50941335Y-73825000D01*
X51218574Y-73769853D01*
X51479727Y-73661680D01*
X51714759Y-73504637D01*
X51914637Y-73304759D01*
X52071680Y-73069727D01*
X52179853Y-72808574D01*
X52235000Y-72531335D01*
X52235000Y-72248665D01*
X56985000Y-72248665D01*
X56985000Y-72531335D01*
X57040147Y-72808574D01*
X57148320Y-73069727D01*
X57305363Y-73304759D01*
X57505241Y-73504637D01*
X57740273Y-73661680D01*
X58001426Y-73769853D01*
X58278665Y-73825000D01*
X58561335Y-73825000D01*
X58838574Y-73769853D01*
X59099727Y-73661680D01*
X59334759Y-73504637D01*
X59534637Y-73304759D01*
X59691680Y-73069727D01*
X59799853Y-72808574D01*
X59855000Y-72531335D01*
X59855000Y-72248665D01*
X59799853Y-71971426D01*
X59691680Y-71710273D01*
X59534637Y-71475241D01*
X59334759Y-71275363D01*
X59099727Y-71118320D01*
X58838574Y-71010147D01*
X58561335Y-70955000D01*
X58278665Y-70955000D01*
X58001426Y-71010147D01*
X57740273Y-71118320D01*
X57505241Y-71275363D01*
X57305363Y-71475241D01*
X57148320Y-71710273D01*
X57040147Y-71971426D01*
X56985000Y-72248665D01*
X52235000Y-72248665D01*
X52179853Y-71971426D01*
X52071680Y-71710273D01*
X51914637Y-71475241D01*
X51714759Y-71275363D01*
X51479727Y-71118320D01*
X51218574Y-71010147D01*
X50941335Y-70955000D01*
X50658665Y-70955000D01*
X50381426Y-71010147D01*
X50120273Y-71118320D01*
X49885241Y-71275363D01*
X49685363Y-71475241D01*
X49528320Y-71710273D01*
X49420147Y-71971426D01*
X49365000Y-72248665D01*
X29337000Y-72248665D01*
X29337000Y-65870349D01*
X65587500Y-65870349D01*
X65587500Y-66209651D01*
X65653695Y-66542435D01*
X65783541Y-66855909D01*
X65972047Y-67138029D01*
X66211971Y-67377953D01*
X66494091Y-67566459D01*
X66807565Y-67696305D01*
X67140349Y-67762500D01*
X67479651Y-67762500D01*
X67812435Y-67696305D01*
X68125909Y-67566459D01*
X68408029Y-67377953D01*
X68647953Y-67138029D01*
X68836459Y-66855909D01*
X68966305Y-66542435D01*
X69032500Y-66209651D01*
X69032500Y-65870349D01*
X118087500Y-65870349D01*
X118087500Y-66209651D01*
X118153695Y-66542435D01*
X118283541Y-66855909D01*
X118472047Y-67138029D01*
X118711971Y-67377953D01*
X118994091Y-67566459D01*
X119307565Y-67696305D01*
X119640349Y-67762500D01*
X119979651Y-67762500D01*
X120312435Y-67696305D01*
X120625909Y-67566459D01*
X120908029Y-67377953D01*
X121147953Y-67138029D01*
X121336459Y-66855909D01*
X121466305Y-66542435D01*
X121532500Y-66209651D01*
X121532500Y-65870349D01*
X121466305Y-65537565D01*
X121336459Y-65224091D01*
X121147953Y-64941971D01*
X120908029Y-64702047D01*
X120625909Y-64513541D01*
X120312435Y-64383695D01*
X119979651Y-64317500D01*
X119640349Y-64317500D01*
X119307565Y-64383695D01*
X118994091Y-64513541D01*
X118711971Y-64702047D01*
X118472047Y-64941971D01*
X118283541Y-65224091D01*
X118153695Y-65537565D01*
X118087500Y-65870349D01*
X69032500Y-65870349D01*
X68966305Y-65537565D01*
X68836459Y-65224091D01*
X68647953Y-64941971D01*
X68408029Y-64702047D01*
X68125909Y-64513541D01*
X67812435Y-64383695D01*
X67479651Y-64317500D01*
X67140349Y-64317500D01*
X66807565Y-64383695D01*
X66494091Y-64513541D01*
X66211971Y-64702047D01*
X65972047Y-64941971D01*
X65783541Y-65224091D01*
X65653695Y-65537565D01*
X65587500Y-65870349D01*
X29337000Y-65870349D01*
X29337000Y-56650000D01*
X30611928Y-56650000D01*
X30611928Y-57650000D01*
X30624188Y-57774482D01*
X30660498Y-57894180D01*
X30704888Y-57977226D01*
X30658617Y-58088933D01*
X30615000Y-58308212D01*
X30615000Y-58531788D01*
X30658617Y-58751067D01*
X30744176Y-58957624D01*
X30809241Y-59055000D01*
X30744176Y-59152376D01*
X30658617Y-59358933D01*
X30615000Y-59578212D01*
X30615000Y-59801788D01*
X30658617Y-60021067D01*
X30744176Y-60227624D01*
X30809241Y-60325000D01*
X30744176Y-60422376D01*
X30658617Y-60628933D01*
X30615000Y-60848212D01*
X30615000Y-61071788D01*
X30658617Y-61291067D01*
X30744176Y-61497624D01*
X30868388Y-61683520D01*
X31026480Y-61841612D01*
X31212376Y-61965824D01*
X31418933Y-62051383D01*
X31638212Y-62095000D01*
X31861788Y-62095000D01*
X32081067Y-62051383D01*
X32287624Y-61965824D01*
X32473520Y-61841612D01*
X32631612Y-61683520D01*
X32755824Y-61497624D01*
X32841383Y-61291067D01*
X32885000Y-61071788D01*
X32885000Y-60848212D01*
X32841383Y-60628933D01*
X32755824Y-60422376D01*
X32690759Y-60325000D01*
X32755824Y-60227624D01*
X32841383Y-60021067D01*
X32885000Y-59801788D01*
X32885000Y-59578212D01*
X32841383Y-59358933D01*
X32755824Y-59152376D01*
X32690759Y-59055000D01*
X32755824Y-58957624D01*
X32841383Y-58751067D01*
X32885000Y-58531788D01*
X32885000Y-58308212D01*
X32841383Y-58088933D01*
X32795112Y-57977226D01*
X32839502Y-57894180D01*
X32875812Y-57774482D01*
X32888072Y-57650000D01*
X32888072Y-56650000D01*
X32875812Y-56525518D01*
X32839502Y-56405820D01*
X32780537Y-56295506D01*
X32701185Y-56198815D01*
X32604494Y-56119463D01*
X32494180Y-56060498D01*
X32374482Y-56024188D01*
X32250000Y-56011928D01*
X31250000Y-56011928D01*
X31125518Y-56024188D01*
X31005820Y-56060498D01*
X30895506Y-56119463D01*
X30798815Y-56198815D01*
X30719463Y-56295506D01*
X30660498Y-56405820D01*
X30624188Y-56525518D01*
X30611928Y-56650000D01*
X29337000Y-56650000D01*
X29337000Y-47760000D01*
X30611928Y-47760000D01*
X30611928Y-48760000D01*
X30624188Y-48884482D01*
X30660498Y-49004180D01*
X30704888Y-49087226D01*
X30658617Y-49198933D01*
X30615000Y-49418212D01*
X30615000Y-49641788D01*
X30658617Y-49861067D01*
X30744176Y-50067624D01*
X30809241Y-50165000D01*
X30744176Y-50262376D01*
X30658617Y-50468933D01*
X30615000Y-50688212D01*
X30615000Y-50911788D01*
X30658617Y-51131067D01*
X30744176Y-51337624D01*
X30809241Y-51435000D01*
X30744176Y-51532376D01*
X30658617Y-51738933D01*
X30615000Y-51958212D01*
X30615000Y-52181788D01*
X30658617Y-52401067D01*
X30744176Y-52607624D01*
X30868388Y-52793520D01*
X31026480Y-52951612D01*
X31212376Y-53075824D01*
X31418933Y-53161383D01*
X31638212Y-53205000D01*
X31861788Y-53205000D01*
X32081067Y-53161383D01*
X32287624Y-53075824D01*
X32473520Y-52951612D01*
X32631612Y-52793520D01*
X32755824Y-52607624D01*
X32841383Y-52401067D01*
X32885000Y-52181788D01*
X32885000Y-51958212D01*
X32841383Y-51738933D01*
X32755824Y-51532376D01*
X32690759Y-51435000D01*
X32755824Y-51337624D01*
X32841383Y-51131067D01*
X32885000Y-50911788D01*
X32885000Y-50688212D01*
X32841383Y-50468933D01*
X32755824Y-50262376D01*
X32690759Y-50165000D01*
X32755824Y-50067624D01*
X32841383Y-49861067D01*
X32885000Y-49641788D01*
X32885000Y-49418212D01*
X32841383Y-49198933D01*
X32795112Y-49087226D01*
X32839502Y-49004180D01*
X32875812Y-48884482D01*
X32888072Y-48760000D01*
X32888072Y-47760000D01*
X32875812Y-47635518D01*
X32839502Y-47515820D01*
X32780537Y-47405506D01*
X32701185Y-47308815D01*
X32604494Y-47229463D01*
X32494180Y-47170498D01*
X32374482Y-47134188D01*
X32250000Y-47121928D01*
X31250000Y-47121928D01*
X31125518Y-47134188D01*
X31005820Y-47170498D01*
X30895506Y-47229463D01*
X30798815Y-47308815D01*
X30719463Y-47405506D01*
X30660498Y-47515820D01*
X30624188Y-47635518D01*
X30611928Y-47760000D01*
X29337000Y-47760000D01*
X29337000Y-45570349D01*
X65587500Y-45570349D01*
X65587500Y-45909651D01*
X65653695Y-46242435D01*
X65783541Y-46555909D01*
X65972047Y-46838029D01*
X66211971Y-47077953D01*
X66494091Y-47266459D01*
X66807565Y-47396305D01*
X67140349Y-47462500D01*
X67479651Y-47462500D01*
X67812435Y-47396305D01*
X68125909Y-47266459D01*
X68408029Y-47077953D01*
X68647953Y-46838029D01*
X68836459Y-46555909D01*
X68966305Y-46242435D01*
X69032500Y-45909651D01*
X69032500Y-45570349D01*
X118087500Y-45570349D01*
X118087500Y-45909651D01*
X118153695Y-46242435D01*
X118283541Y-46555909D01*
X118472047Y-46838029D01*
X118711971Y-47077953D01*
X118994091Y-47266459D01*
X119307565Y-47396305D01*
X119640349Y-47462500D01*
X119979651Y-47462500D01*
X120312435Y-47396305D01*
X120625909Y-47266459D01*
X120908029Y-47077953D01*
X121147953Y-46838029D01*
X121336459Y-46555909D01*
X121466305Y-46242435D01*
X121532500Y-45909651D01*
X121532500Y-45570349D01*
X121466305Y-45237565D01*
X121336459Y-44924091D01*
X121147953Y-44641971D01*
X120908029Y-44402047D01*
X120625909Y-44213541D01*
X120312435Y-44083695D01*
X119979651Y-44017500D01*
X119640349Y-44017500D01*
X119307565Y-44083695D01*
X118994091Y-44213541D01*
X118711971Y-44402047D01*
X118472047Y-44641971D01*
X118283541Y-44924091D01*
X118153695Y-45237565D01*
X118087500Y-45570349D01*
X69032500Y-45570349D01*
X68966305Y-45237565D01*
X68836459Y-44924091D01*
X68647953Y-44641971D01*
X68408029Y-44402047D01*
X68125909Y-44213541D01*
X67812435Y-44083695D01*
X67479651Y-44017500D01*
X67140349Y-44017500D01*
X66807565Y-44083695D01*
X66494091Y-44213541D01*
X66211971Y-44402047D01*
X65972047Y-44641971D01*
X65783541Y-44924091D01*
X65653695Y-45237565D01*
X65587500Y-45570349D01*
X29337000Y-45570349D01*
X29337000Y-39870000D01*
X36961928Y-39870000D01*
X36974188Y-39994482D01*
X37010498Y-40114180D01*
X37054888Y-40197226D01*
X37008617Y-40308933D01*
X36965000Y-40528212D01*
X36965000Y-40751788D01*
X37008617Y-40971067D01*
X37094176Y-41177624D01*
X37218388Y-41363520D01*
X37376480Y-41521612D01*
X37562376Y-41645824D01*
X37768933Y-41731383D01*
X37988212Y-41775000D01*
X38211788Y-41775000D01*
X38431067Y-41731383D01*
X38637624Y-41645824D01*
X38823520Y-41521612D01*
X38981612Y-41363520D01*
X39105824Y-41177624D01*
X39191383Y-40971067D01*
X39235000Y-40751788D01*
X39235000Y-40528212D01*
X39191383Y-40308933D01*
X39145112Y-40197226D01*
X39189502Y-40114180D01*
X39225812Y-39994482D01*
X39238072Y-39870000D01*
X39235000Y-39655750D01*
X39076250Y-39497000D01*
X38227000Y-39497000D01*
X38227000Y-39508026D01*
X38211788Y-39505000D01*
X37988212Y-39505000D01*
X37973000Y-39508026D01*
X37973000Y-39497000D01*
X37123750Y-39497000D01*
X36965000Y-39655750D01*
X36961928Y-39870000D01*
X29337000Y-39870000D01*
X29337000Y-38870000D01*
X36961928Y-38870000D01*
X36965000Y-39084250D01*
X37123750Y-39243000D01*
X37973000Y-39243000D01*
X37973000Y-38393750D01*
X38227000Y-38393750D01*
X38227000Y-39243000D01*
X39076250Y-39243000D01*
X39235000Y-39084250D01*
X39238072Y-38870000D01*
X43311928Y-38870000D01*
X43311928Y-39870000D01*
X43324188Y-39994482D01*
X43360498Y-40114180D01*
X43404888Y-40197226D01*
X43358617Y-40308933D01*
X43315000Y-40528212D01*
X43315000Y-40751788D01*
X43358617Y-40971067D01*
X43444176Y-41177624D01*
X43568388Y-41363520D01*
X43726480Y-41521612D01*
X43912376Y-41645824D01*
X44118933Y-41731383D01*
X44338212Y-41775000D01*
X44561788Y-41775000D01*
X44781067Y-41731383D01*
X44987624Y-41645824D01*
X45173520Y-41521612D01*
X45331612Y-41363520D01*
X45455824Y-41177624D01*
X45541383Y-40971067D01*
X45585000Y-40751788D01*
X45585000Y-40528212D01*
X45541383Y-40308933D01*
X45495112Y-40197226D01*
X45539502Y-40114180D01*
X45575812Y-39994482D01*
X45588072Y-39870000D01*
X45588072Y-38870000D01*
X45575812Y-38745518D01*
X45539502Y-38625820D01*
X45480537Y-38515506D01*
X45401185Y-38418815D01*
X45304494Y-38339463D01*
X45194180Y-38280498D01*
X45074482Y-38244188D01*
X44950000Y-38231928D01*
X43950000Y-38231928D01*
X43825518Y-38244188D01*
X43705820Y-38280498D01*
X43595506Y-38339463D01*
X43498815Y-38418815D01*
X43419463Y-38515506D01*
X43360498Y-38625820D01*
X43324188Y-38745518D01*
X43311928Y-38870000D01*
X39238072Y-38870000D01*
X39225812Y-38745518D01*
X39189502Y-38625820D01*
X39130537Y-38515506D01*
X39051185Y-38418815D01*
X38954494Y-38339463D01*
X38844180Y-38280498D01*
X38724482Y-38244188D01*
X38600000Y-38231928D01*
X38385750Y-38235000D01*
X38227000Y-38393750D01*
X37973000Y-38393750D01*
X37814250Y-38235000D01*
X37600000Y-38231928D01*
X37475518Y-38244188D01*
X37355820Y-38280498D01*
X37245506Y-38339463D01*
X37148815Y-38418815D01*
X37069463Y-38515506D01*
X37010498Y-38625820D01*
X36974188Y-38745518D01*
X36961928Y-38870000D01*
X29337000Y-38870000D01*
X29337000Y-38227000D01*
X125603000Y-38227000D01*
X125603000Y-92273897D01*
%TA.AperFunction,Conductor*%
D19*
G36*
X125603000Y-92273897D02*
G01*
X125473788Y-92661534D01*
X120248999Y-94403130D01*
X119314649Y-94590000D01*
X80800927Y-94590000D01*
X29337000Y-93854801D01*
X29337000Y-88400000D01*
X90301928Y-88400000D01*
X90301928Y-89400000D01*
X90314188Y-89524482D01*
X90350498Y-89644180D01*
X90409463Y-89754494D01*
X90488815Y-89851185D01*
X90585506Y-89930537D01*
X90695820Y-89989502D01*
X90815518Y-90025812D01*
X90940000Y-90038072D01*
X91940000Y-90038072D01*
X92064482Y-90025812D01*
X92184180Y-89989502D01*
X92267226Y-89945112D01*
X92378933Y-89991383D01*
X92598212Y-90035000D01*
X92821788Y-90035000D01*
X93041067Y-89991383D01*
X93247624Y-89905824D01*
X93433520Y-89781612D01*
X93591612Y-89623520D01*
X93715824Y-89437624D01*
X93801383Y-89231067D01*
X93845000Y-89011788D01*
X93845000Y-88788212D01*
X93801383Y-88568933D01*
X93715824Y-88362376D01*
X93591612Y-88176480D01*
X93433520Y-88018388D01*
X93247624Y-87894176D01*
X93041067Y-87808617D01*
X92821788Y-87765000D01*
X92598212Y-87765000D01*
X92378933Y-87808617D01*
X92267226Y-87854888D01*
X92184180Y-87810498D01*
X92064482Y-87774188D01*
X91940000Y-87761928D01*
X90940000Y-87761928D01*
X90815518Y-87774188D01*
X90695820Y-87810498D01*
X90585506Y-87869463D01*
X90488815Y-87948815D01*
X90409463Y-88045506D01*
X90350498Y-88155820D01*
X90314188Y-88275518D01*
X90301928Y-88400000D01*
X29337000Y-88400000D01*
X29337000Y-80080000D01*
X89601928Y-80080000D01*
X89601928Y-82480000D01*
X89614188Y-82604482D01*
X89650498Y-82724180D01*
X89709463Y-82834494D01*
X89788815Y-82931185D01*
X89885506Y-83010537D01*
X89995820Y-83069502D01*
X90115518Y-83105812D01*
X90240000Y-83118072D01*
X92640000Y-83118072D01*
X92764482Y-83105812D01*
X92884180Y-83069502D01*
X92994494Y-83010537D01*
X93091185Y-82931185D01*
X93170537Y-82834494D01*
X93229502Y-82724180D01*
X93265812Y-82604482D01*
X93278072Y-82480000D01*
X93278072Y-81099268D01*
X114605000Y-81099268D01*
X114605000Y-81460732D01*
X114675518Y-81815250D01*
X114813844Y-82149199D01*
X115014662Y-82449744D01*
X115270256Y-82705338D01*
X115570801Y-82906156D01*
X115904750Y-83044482D01*
X116259268Y-83115000D01*
X116620732Y-83115000D01*
X116975250Y-83044482D01*
X117309199Y-82906156D01*
X117609744Y-82705338D01*
X117865338Y-82449744D01*
X118066156Y-82149199D01*
X118204482Y-81815250D01*
X118275000Y-81460732D01*
X118275000Y-81099268D01*
X118204482Y-80744750D01*
X118066156Y-80410801D01*
X117865338Y-80110256D01*
X117609744Y-79854662D01*
X117309199Y-79653844D01*
X116975250Y-79515518D01*
X116620732Y-79445000D01*
X116259268Y-79445000D01*
X115904750Y-79515518D01*
X115570801Y-79653844D01*
X115270256Y-79854662D01*
X115014662Y-80110256D01*
X114813844Y-80410801D01*
X114675518Y-80744750D01*
X114605000Y-81099268D01*
X93278072Y-81099268D01*
X93278072Y-80080000D01*
X93265812Y-79955518D01*
X93229502Y-79835820D01*
X93170537Y-79725506D01*
X93091185Y-79628815D01*
X92994494Y-79549463D01*
X92884180Y-79490498D01*
X92764482Y-79454188D01*
X92640000Y-79441928D01*
X90240000Y-79441928D01*
X90115518Y-79454188D01*
X89995820Y-79490498D01*
X89885506Y-79549463D01*
X89788815Y-79628815D01*
X89709463Y-79725506D01*
X89650498Y-79835820D01*
X89614188Y-79955518D01*
X89601928Y-80080000D01*
X29337000Y-80080000D01*
X29337000Y-72248665D01*
X49365000Y-72248665D01*
X49365000Y-72531335D01*
X49420147Y-72808574D01*
X49528320Y-73069727D01*
X49685363Y-73304759D01*
X49885241Y-73504637D01*
X50120273Y-73661680D01*
X50381426Y-73769853D01*
X50658665Y-73825000D01*
X50941335Y-73825000D01*
X51218574Y-73769853D01*
X51479727Y-73661680D01*
X51714759Y-73504637D01*
X51914637Y-73304759D01*
X52071680Y-73069727D01*
X52179853Y-72808574D01*
X52235000Y-72531335D01*
X52235000Y-72248665D01*
X56985000Y-72248665D01*
X56985000Y-72531335D01*
X57040147Y-72808574D01*
X57148320Y-73069727D01*
X57305363Y-73304759D01*
X57505241Y-73504637D01*
X57740273Y-73661680D01*
X58001426Y-73769853D01*
X58278665Y-73825000D01*
X58561335Y-73825000D01*
X58838574Y-73769853D01*
X59099727Y-73661680D01*
X59334759Y-73504637D01*
X59534637Y-73304759D01*
X59691680Y-73069727D01*
X59799853Y-72808574D01*
X59855000Y-72531335D01*
X59855000Y-72248665D01*
X59799853Y-71971426D01*
X59691680Y-71710273D01*
X59534637Y-71475241D01*
X59334759Y-71275363D01*
X59099727Y-71118320D01*
X58838574Y-71010147D01*
X58561335Y-70955000D01*
X58278665Y-70955000D01*
X58001426Y-71010147D01*
X57740273Y-71118320D01*
X57505241Y-71275363D01*
X57305363Y-71475241D01*
X57148320Y-71710273D01*
X57040147Y-71971426D01*
X56985000Y-72248665D01*
X52235000Y-72248665D01*
X52179853Y-71971426D01*
X52071680Y-71710273D01*
X51914637Y-71475241D01*
X51714759Y-71275363D01*
X51479727Y-71118320D01*
X51218574Y-71010147D01*
X50941335Y-70955000D01*
X50658665Y-70955000D01*
X50381426Y-71010147D01*
X50120273Y-71118320D01*
X49885241Y-71275363D01*
X49685363Y-71475241D01*
X49528320Y-71710273D01*
X49420147Y-71971426D01*
X49365000Y-72248665D01*
X29337000Y-72248665D01*
X29337000Y-65870349D01*
X65587500Y-65870349D01*
X65587500Y-66209651D01*
X65653695Y-66542435D01*
X65783541Y-66855909D01*
X65972047Y-67138029D01*
X66211971Y-67377953D01*
X66494091Y-67566459D01*
X66807565Y-67696305D01*
X67140349Y-67762500D01*
X67479651Y-67762500D01*
X67812435Y-67696305D01*
X68125909Y-67566459D01*
X68408029Y-67377953D01*
X68647953Y-67138029D01*
X68836459Y-66855909D01*
X68966305Y-66542435D01*
X69032500Y-66209651D01*
X69032500Y-65870349D01*
X118087500Y-65870349D01*
X118087500Y-66209651D01*
X118153695Y-66542435D01*
X118283541Y-66855909D01*
X118472047Y-67138029D01*
X118711971Y-67377953D01*
X118994091Y-67566459D01*
X119307565Y-67696305D01*
X119640349Y-67762500D01*
X119979651Y-67762500D01*
X120312435Y-67696305D01*
X120625909Y-67566459D01*
X120908029Y-67377953D01*
X121147953Y-67138029D01*
X121336459Y-66855909D01*
X121466305Y-66542435D01*
X121532500Y-66209651D01*
X121532500Y-65870349D01*
X121466305Y-65537565D01*
X121336459Y-65224091D01*
X121147953Y-64941971D01*
X120908029Y-64702047D01*
X120625909Y-64513541D01*
X120312435Y-64383695D01*
X119979651Y-64317500D01*
X119640349Y-64317500D01*
X119307565Y-64383695D01*
X118994091Y-64513541D01*
X118711971Y-64702047D01*
X118472047Y-64941971D01*
X118283541Y-65224091D01*
X118153695Y-65537565D01*
X118087500Y-65870349D01*
X69032500Y-65870349D01*
X68966305Y-65537565D01*
X68836459Y-65224091D01*
X68647953Y-64941971D01*
X68408029Y-64702047D01*
X68125909Y-64513541D01*
X67812435Y-64383695D01*
X67479651Y-64317500D01*
X67140349Y-64317500D01*
X66807565Y-64383695D01*
X66494091Y-64513541D01*
X66211971Y-64702047D01*
X65972047Y-64941971D01*
X65783541Y-65224091D01*
X65653695Y-65537565D01*
X65587500Y-65870349D01*
X29337000Y-65870349D01*
X29337000Y-56650000D01*
X30611928Y-56650000D01*
X30611928Y-57650000D01*
X30624188Y-57774482D01*
X30660498Y-57894180D01*
X30704888Y-57977226D01*
X30658617Y-58088933D01*
X30615000Y-58308212D01*
X30615000Y-58531788D01*
X30658617Y-58751067D01*
X30744176Y-58957624D01*
X30809241Y-59055000D01*
X30744176Y-59152376D01*
X30658617Y-59358933D01*
X30615000Y-59578212D01*
X30615000Y-59801788D01*
X30658617Y-60021067D01*
X30744176Y-60227624D01*
X30809241Y-60325000D01*
X30744176Y-60422376D01*
X30658617Y-60628933D01*
X30615000Y-60848212D01*
X30615000Y-61071788D01*
X30658617Y-61291067D01*
X30744176Y-61497624D01*
X30868388Y-61683520D01*
X31026480Y-61841612D01*
X31212376Y-61965824D01*
X31418933Y-62051383D01*
X31638212Y-62095000D01*
X31861788Y-62095000D01*
X32081067Y-62051383D01*
X32287624Y-61965824D01*
X32473520Y-61841612D01*
X32631612Y-61683520D01*
X32755824Y-61497624D01*
X32841383Y-61291067D01*
X32885000Y-61071788D01*
X32885000Y-60848212D01*
X32841383Y-60628933D01*
X32755824Y-60422376D01*
X32690759Y-60325000D01*
X32755824Y-60227624D01*
X32841383Y-60021067D01*
X32885000Y-59801788D01*
X32885000Y-59578212D01*
X32841383Y-59358933D01*
X32755824Y-59152376D01*
X32690759Y-59055000D01*
X32755824Y-58957624D01*
X32841383Y-58751067D01*
X32885000Y-58531788D01*
X32885000Y-58308212D01*
X32841383Y-58088933D01*
X32795112Y-57977226D01*
X32839502Y-57894180D01*
X32875812Y-57774482D01*
X32888072Y-57650000D01*
X32888072Y-56650000D01*
X32875812Y-56525518D01*
X32839502Y-56405820D01*
X32780537Y-56295506D01*
X32701185Y-56198815D01*
X32604494Y-56119463D01*
X32494180Y-56060498D01*
X32374482Y-56024188D01*
X32250000Y-56011928D01*
X31250000Y-56011928D01*
X31125518Y-56024188D01*
X31005820Y-56060498D01*
X30895506Y-56119463D01*
X30798815Y-56198815D01*
X30719463Y-56295506D01*
X30660498Y-56405820D01*
X30624188Y-56525518D01*
X30611928Y-56650000D01*
X29337000Y-56650000D01*
X29337000Y-47760000D01*
X30611928Y-47760000D01*
X30611928Y-48760000D01*
X30624188Y-48884482D01*
X30660498Y-49004180D01*
X30704888Y-49087226D01*
X30658617Y-49198933D01*
X30615000Y-49418212D01*
X30615000Y-49641788D01*
X30658617Y-49861067D01*
X30744176Y-50067624D01*
X30809241Y-50165000D01*
X30744176Y-50262376D01*
X30658617Y-50468933D01*
X30615000Y-50688212D01*
X30615000Y-50911788D01*
X30658617Y-51131067D01*
X30744176Y-51337624D01*
X30809241Y-51435000D01*
X30744176Y-51532376D01*
X30658617Y-51738933D01*
X30615000Y-51958212D01*
X30615000Y-52181788D01*
X30658617Y-52401067D01*
X30744176Y-52607624D01*
X30868388Y-52793520D01*
X31026480Y-52951612D01*
X31212376Y-53075824D01*
X31418933Y-53161383D01*
X31638212Y-53205000D01*
X31861788Y-53205000D01*
X32081067Y-53161383D01*
X32287624Y-53075824D01*
X32473520Y-52951612D01*
X32631612Y-52793520D01*
X32755824Y-52607624D01*
X32841383Y-52401067D01*
X32885000Y-52181788D01*
X32885000Y-51958212D01*
X32841383Y-51738933D01*
X32755824Y-51532376D01*
X32690759Y-51435000D01*
X32755824Y-51337624D01*
X32841383Y-51131067D01*
X32885000Y-50911788D01*
X32885000Y-50688212D01*
X32841383Y-50468933D01*
X32755824Y-50262376D01*
X32690759Y-50165000D01*
X32755824Y-50067624D01*
X32841383Y-49861067D01*
X32885000Y-49641788D01*
X32885000Y-49418212D01*
X32841383Y-49198933D01*
X32795112Y-49087226D01*
X32839502Y-49004180D01*
X32875812Y-48884482D01*
X32888072Y-48760000D01*
X32888072Y-47760000D01*
X32875812Y-47635518D01*
X32839502Y-47515820D01*
X32780537Y-47405506D01*
X32701185Y-47308815D01*
X32604494Y-47229463D01*
X32494180Y-47170498D01*
X32374482Y-47134188D01*
X32250000Y-47121928D01*
X31250000Y-47121928D01*
X31125518Y-47134188D01*
X31005820Y-47170498D01*
X30895506Y-47229463D01*
X30798815Y-47308815D01*
X30719463Y-47405506D01*
X30660498Y-47515820D01*
X30624188Y-47635518D01*
X30611928Y-47760000D01*
X29337000Y-47760000D01*
X29337000Y-45570349D01*
X65587500Y-45570349D01*
X65587500Y-45909651D01*
X65653695Y-46242435D01*
X65783541Y-46555909D01*
X65972047Y-46838029D01*
X66211971Y-47077953D01*
X66494091Y-47266459D01*
X66807565Y-47396305D01*
X67140349Y-47462500D01*
X67479651Y-47462500D01*
X67812435Y-47396305D01*
X68125909Y-47266459D01*
X68408029Y-47077953D01*
X68647953Y-46838029D01*
X68836459Y-46555909D01*
X68966305Y-46242435D01*
X69032500Y-45909651D01*
X69032500Y-45570349D01*
X118087500Y-45570349D01*
X118087500Y-45909651D01*
X118153695Y-46242435D01*
X118283541Y-46555909D01*
X118472047Y-46838029D01*
X118711971Y-47077953D01*
X118994091Y-47266459D01*
X119307565Y-47396305D01*
X119640349Y-47462500D01*
X119979651Y-47462500D01*
X120312435Y-47396305D01*
X120625909Y-47266459D01*
X120908029Y-47077953D01*
X121147953Y-46838029D01*
X121336459Y-46555909D01*
X121466305Y-46242435D01*
X121532500Y-45909651D01*
X121532500Y-45570349D01*
X121466305Y-45237565D01*
X121336459Y-44924091D01*
X121147953Y-44641971D01*
X120908029Y-44402047D01*
X120625909Y-44213541D01*
X120312435Y-44083695D01*
X119979651Y-44017500D01*
X119640349Y-44017500D01*
X119307565Y-44083695D01*
X118994091Y-44213541D01*
X118711971Y-44402047D01*
X118472047Y-44641971D01*
X118283541Y-44924091D01*
X118153695Y-45237565D01*
X118087500Y-45570349D01*
X69032500Y-45570349D01*
X68966305Y-45237565D01*
X68836459Y-44924091D01*
X68647953Y-44641971D01*
X68408029Y-44402047D01*
X68125909Y-44213541D01*
X67812435Y-44083695D01*
X67479651Y-44017500D01*
X67140349Y-44017500D01*
X66807565Y-44083695D01*
X66494091Y-44213541D01*
X66211971Y-44402047D01*
X65972047Y-44641971D01*
X65783541Y-44924091D01*
X65653695Y-45237565D01*
X65587500Y-45570349D01*
X29337000Y-45570349D01*
X29337000Y-39870000D01*
X36961928Y-39870000D01*
X36974188Y-39994482D01*
X37010498Y-40114180D01*
X37054888Y-40197226D01*
X37008617Y-40308933D01*
X36965000Y-40528212D01*
X36965000Y-40751788D01*
X37008617Y-40971067D01*
X37094176Y-41177624D01*
X37218388Y-41363520D01*
X37376480Y-41521612D01*
X37562376Y-41645824D01*
X37768933Y-41731383D01*
X37988212Y-41775000D01*
X38211788Y-41775000D01*
X38431067Y-41731383D01*
X38637624Y-41645824D01*
X38823520Y-41521612D01*
X38981612Y-41363520D01*
X39105824Y-41177624D01*
X39191383Y-40971067D01*
X39235000Y-40751788D01*
X39235000Y-40528212D01*
X39191383Y-40308933D01*
X39145112Y-40197226D01*
X39189502Y-40114180D01*
X39225812Y-39994482D01*
X39238072Y-39870000D01*
X39235000Y-39655750D01*
X39076250Y-39497000D01*
X38227000Y-39497000D01*
X38227000Y-39508026D01*
X38211788Y-39505000D01*
X37988212Y-39505000D01*
X37973000Y-39508026D01*
X37973000Y-39497000D01*
X37123750Y-39497000D01*
X36965000Y-39655750D01*
X36961928Y-39870000D01*
X29337000Y-39870000D01*
X29337000Y-38870000D01*
X36961928Y-38870000D01*
X36965000Y-39084250D01*
X37123750Y-39243000D01*
X37973000Y-39243000D01*
X37973000Y-38393750D01*
X38227000Y-38393750D01*
X38227000Y-39243000D01*
X39076250Y-39243000D01*
X39235000Y-39084250D01*
X39238072Y-38870000D01*
X43311928Y-38870000D01*
X43311928Y-39870000D01*
X43324188Y-39994482D01*
X43360498Y-40114180D01*
X43404888Y-40197226D01*
X43358617Y-40308933D01*
X43315000Y-40528212D01*
X43315000Y-40751788D01*
X43358617Y-40971067D01*
X43444176Y-41177624D01*
X43568388Y-41363520D01*
X43726480Y-41521612D01*
X43912376Y-41645824D01*
X44118933Y-41731383D01*
X44338212Y-41775000D01*
X44561788Y-41775000D01*
X44781067Y-41731383D01*
X44987624Y-41645824D01*
X45173520Y-41521612D01*
X45331612Y-41363520D01*
X45455824Y-41177624D01*
X45541383Y-40971067D01*
X45585000Y-40751788D01*
X45585000Y-40528212D01*
X45541383Y-40308933D01*
X45495112Y-40197226D01*
X45539502Y-40114180D01*
X45575812Y-39994482D01*
X45588072Y-39870000D01*
X45588072Y-38870000D01*
X45575812Y-38745518D01*
X45539502Y-38625820D01*
X45480537Y-38515506D01*
X45401185Y-38418815D01*
X45304494Y-38339463D01*
X45194180Y-38280498D01*
X45074482Y-38244188D01*
X44950000Y-38231928D01*
X43950000Y-38231928D01*
X43825518Y-38244188D01*
X43705820Y-38280498D01*
X43595506Y-38339463D01*
X43498815Y-38418815D01*
X43419463Y-38515506D01*
X43360498Y-38625820D01*
X43324188Y-38745518D01*
X43311928Y-38870000D01*
X39238072Y-38870000D01*
X39225812Y-38745518D01*
X39189502Y-38625820D01*
X39130537Y-38515506D01*
X39051185Y-38418815D01*
X38954494Y-38339463D01*
X38844180Y-38280498D01*
X38724482Y-38244188D01*
X38600000Y-38231928D01*
X38385750Y-38235000D01*
X38227000Y-38393750D01*
X37973000Y-38393750D01*
X37814250Y-38235000D01*
X37600000Y-38231928D01*
X37475518Y-38244188D01*
X37355820Y-38280498D01*
X37245506Y-38339463D01*
X37148815Y-38418815D01*
X37069463Y-38515506D01*
X37010498Y-38625820D01*
X36974188Y-38745518D01*
X36961928Y-38870000D01*
X29337000Y-38870000D01*
X29337000Y-38227000D01*
X125603000Y-38227000D01*
X125603000Y-92273897D01*
G37*
%TD.AperFunction*%
%TD*%
M02*
