%TF.GenerationSoftware,KiCad,Pcbnew,(5.1.10)-1*%
%TF.CreationDate,2021-08-16T12:44:53+12:00*%
%TF.ProjectId,pcbOutput,7063624f-7574-4707-9574-2e6b69636164,rev?*%
%TF.SameCoordinates,Original*%
%TF.FileFunction,Legend,Top*%
%TF.FilePolarity,Positive*%
%FSLAX46Y46*%
G04 Gerber Fmt 4.6, Leading zero omitted, Abs format (unit mm)*
G04 Created by KiCad (PCBNEW (5.1.10)-1) date 2021-08-16 12:44:53*
%MOMM*%
%LPD*%
G01*
G04 APERTURE LIST*
%ADD10C,0.150000*%
%ADD11C,0.250000*%
%ADD12C,0.120000*%
%ADD13C,0.100000*%
%ADD14C,0.200000*%
%ADD15C,0.254000*%
G04 APERTURE END LIST*
D10*
X34837619Y-47966666D02*
X34028095Y-47966666D01*
X33932857Y-48014285D01*
X33885238Y-48061904D01*
X33837619Y-48157142D01*
X33837619Y-48347619D01*
X33885238Y-48442857D01*
X33932857Y-48490476D01*
X34028095Y-48538095D01*
X34837619Y-48538095D01*
X33885238Y-48966666D02*
X33837619Y-49109523D01*
X33837619Y-49347619D01*
X33885238Y-49442857D01*
X33932857Y-49490476D01*
X34028095Y-49538095D01*
X34123333Y-49538095D01*
X34218571Y-49490476D01*
X34266190Y-49442857D01*
X34313809Y-49347619D01*
X34361428Y-49157142D01*
X34409047Y-49061904D01*
X34456666Y-49014285D01*
X34551904Y-48966666D01*
X34647142Y-48966666D01*
X34742380Y-49014285D01*
X34790000Y-49061904D01*
X34837619Y-49157142D01*
X34837619Y-49395238D01*
X34790000Y-49538095D01*
X34361428Y-50300000D02*
X34313809Y-50442857D01*
X34266190Y-50490476D01*
X34170952Y-50538095D01*
X34028095Y-50538095D01*
X33932857Y-50490476D01*
X33885238Y-50442857D01*
X33837619Y-50347619D01*
X33837619Y-49966666D01*
X34837619Y-49966666D01*
X34837619Y-50300000D01*
X34790000Y-50395238D01*
X34742380Y-50442857D01*
X34647142Y-50490476D01*
X34551904Y-50490476D01*
X34456666Y-50442857D01*
X34409047Y-50395238D01*
X34361428Y-50300000D01*
X34361428Y-49966666D01*
X34742380Y-51680952D02*
X34790000Y-51728571D01*
X34837619Y-51823809D01*
X34837619Y-52061904D01*
X34790000Y-52157142D01*
X34742380Y-52204761D01*
X34647142Y-52252380D01*
X34551904Y-52252380D01*
X34409047Y-52204761D01*
X33837619Y-51633333D01*
X33837619Y-52252380D01*
X33932857Y-52680952D02*
X33885238Y-52728571D01*
X33837619Y-52680952D01*
X33885238Y-52633333D01*
X33932857Y-52680952D01*
X33837619Y-52680952D01*
X34837619Y-53347619D02*
X34837619Y-53442857D01*
X34790000Y-53538095D01*
X34742380Y-53585714D01*
X34647142Y-53633333D01*
X34456666Y-53680952D01*
X34218571Y-53680952D01*
X34028095Y-53633333D01*
X33932857Y-53585714D01*
X33885238Y-53538095D01*
X33837619Y-53442857D01*
X33837619Y-53347619D01*
X33885238Y-53252380D01*
X33932857Y-53204761D01*
X34028095Y-53157142D01*
X34218571Y-53109523D01*
X34456666Y-53109523D01*
X34647142Y-53157142D01*
X34742380Y-53204761D01*
X34790000Y-53252380D01*
X34837619Y-53347619D01*
X47879047Y-67381428D02*
X48640952Y-67381428D01*
X48260000Y-67762380D02*
X48260000Y-67000476D01*
X37719047Y-90241428D02*
X38480952Y-90241428D01*
X38100000Y-90622380D02*
X38100000Y-89860476D01*
X90440000Y-91511428D02*
X91201904Y-91511428D01*
X90820952Y-91892380D02*
X90820952Y-91130476D01*
X91678095Y-91511428D02*
X92440000Y-91511428D01*
X47426666Y-38822380D02*
X47617142Y-38822380D01*
X47712380Y-38870000D01*
X47807619Y-38965238D01*
X47855238Y-39155714D01*
X47855238Y-39489047D01*
X47807619Y-39679523D01*
X47712380Y-39774761D01*
X47617142Y-39822380D01*
X47426666Y-39822380D01*
X47331428Y-39774761D01*
X47236190Y-39679523D01*
X47188571Y-39489047D01*
X47188571Y-39155714D01*
X47236190Y-38965238D01*
X47331428Y-38870000D01*
X47426666Y-38822380D01*
X48712380Y-39155714D02*
X48712380Y-39822380D01*
X48283809Y-39155714D02*
X48283809Y-39679523D01*
X48331428Y-39774761D01*
X48426666Y-39822380D01*
X48569523Y-39822380D01*
X48664761Y-39774761D01*
X48712380Y-39727142D01*
X49045714Y-39155714D02*
X49426666Y-39155714D01*
X49188571Y-38822380D02*
X49188571Y-39679523D01*
X49236190Y-39774761D01*
X49331428Y-39822380D01*
X49426666Y-39822380D01*
X34742380Y-41727142D02*
X33742380Y-41727142D01*
X34075714Y-41250952D02*
X34742380Y-41250952D01*
X34170952Y-41250952D02*
X34123333Y-41203333D01*
X34075714Y-41108095D01*
X34075714Y-40965238D01*
X34123333Y-40870000D01*
X34218571Y-40822380D01*
X34742380Y-40822380D01*
X33790000Y-39060476D02*
X33742380Y-39155714D01*
X33742380Y-39298571D01*
X33790000Y-39441428D01*
X33885238Y-39536666D01*
X33980476Y-39584285D01*
X34170952Y-39631904D01*
X34313809Y-39631904D01*
X34504285Y-39584285D01*
X34599523Y-39536666D01*
X34694761Y-39441428D01*
X34742380Y-39298571D01*
X34742380Y-39203333D01*
X34694761Y-39060476D01*
X34647142Y-39012857D01*
X34313809Y-39012857D01*
X34313809Y-39203333D01*
X34742380Y-38584285D02*
X33742380Y-38584285D01*
X34742380Y-38012857D01*
X33742380Y-38012857D01*
X34742380Y-37536666D02*
X33742380Y-37536666D01*
X33742380Y-37298571D01*
X33790000Y-37155714D01*
X33885238Y-37060476D01*
X33980476Y-37012857D01*
X34170952Y-36965238D01*
X34313809Y-36965238D01*
X34504285Y-37012857D01*
X34599523Y-37060476D01*
X34694761Y-37155714D01*
X34742380Y-37298571D01*
X34742380Y-37536666D01*
D11*
X59172142Y-49609047D02*
X59219761Y-49656666D01*
X59267380Y-49799523D01*
X59267380Y-49894761D01*
X59219761Y-50037619D01*
X59124523Y-50132857D01*
X59029285Y-50180476D01*
X58838809Y-50228095D01*
X58695952Y-50228095D01*
X58505476Y-50180476D01*
X58410238Y-50132857D01*
X58315000Y-50037619D01*
X58267380Y-49894761D01*
X58267380Y-49799523D01*
X58315000Y-49656666D01*
X58362619Y-49609047D01*
X59267380Y-49180476D02*
X58267380Y-49180476D01*
X59267380Y-48751904D02*
X58743571Y-48751904D01*
X58648333Y-48799523D01*
X58600714Y-48894761D01*
X58600714Y-49037619D01*
X58648333Y-49132857D01*
X58695952Y-49180476D01*
X59267380Y-48132857D02*
X59219761Y-48228095D01*
X59172142Y-48275714D01*
X59076904Y-48323333D01*
X58791190Y-48323333D01*
X58695952Y-48275714D01*
X58648333Y-48228095D01*
X58600714Y-48132857D01*
X58600714Y-47990000D01*
X58648333Y-47894761D01*
X58695952Y-47847142D01*
X58791190Y-47799523D01*
X59076904Y-47799523D01*
X59172142Y-47847142D01*
X59219761Y-47894761D01*
X59267380Y-47990000D01*
X59267380Y-48132857D01*
X59267380Y-47228095D02*
X59219761Y-47323333D01*
X59172142Y-47370952D01*
X59076904Y-47418571D01*
X58791190Y-47418571D01*
X58695952Y-47370952D01*
X58648333Y-47323333D01*
X58600714Y-47228095D01*
X58600714Y-47085238D01*
X58648333Y-46990000D01*
X58695952Y-46942380D01*
X58791190Y-46894761D01*
X59076904Y-46894761D01*
X59172142Y-46942380D01*
X59219761Y-46990000D01*
X59267380Y-47085238D01*
X59267380Y-47228095D01*
X59267380Y-46466190D02*
X58600714Y-46466190D01*
X58695952Y-46466190D02*
X58648333Y-46418571D01*
X58600714Y-46323333D01*
X58600714Y-46180476D01*
X58648333Y-46085238D01*
X58743571Y-46037619D01*
X59267380Y-46037619D01*
X58743571Y-46037619D02*
X58648333Y-45990000D01*
X58600714Y-45894761D01*
X58600714Y-45751904D01*
X58648333Y-45656666D01*
X58743571Y-45609047D01*
X59267380Y-45609047D01*
X59267380Y-44704285D02*
X58743571Y-44704285D01*
X58648333Y-44751904D01*
X58600714Y-44847142D01*
X58600714Y-45037619D01*
X58648333Y-45132857D01*
X59219761Y-44704285D02*
X59267380Y-44799523D01*
X59267380Y-45037619D01*
X59219761Y-45132857D01*
X59124523Y-45180476D01*
X59029285Y-45180476D01*
X58934047Y-45132857D01*
X58886428Y-45037619D01*
X58886428Y-44799523D01*
X58838809Y-44704285D01*
X59267380Y-44228095D02*
X58267380Y-44228095D01*
X59267380Y-43799523D02*
X58743571Y-43799523D01*
X58648333Y-43847142D01*
X58600714Y-43942380D01*
X58600714Y-44085238D01*
X58648333Y-44180476D01*
X58695952Y-44228095D01*
X61017380Y-54942380D02*
X60017380Y-54942380D01*
X60731666Y-54609047D01*
X60017380Y-54275714D01*
X61017380Y-54275714D01*
X61017380Y-53370952D02*
X60493571Y-53370952D01*
X60398333Y-53418571D01*
X60350714Y-53513809D01*
X60350714Y-53704285D01*
X60398333Y-53799523D01*
X60969761Y-53370952D02*
X61017380Y-53466190D01*
X61017380Y-53704285D01*
X60969761Y-53799523D01*
X60874523Y-53847142D01*
X60779285Y-53847142D01*
X60684047Y-53799523D01*
X60636428Y-53704285D01*
X60636428Y-53466190D01*
X60588809Y-53370952D01*
X61017380Y-52466190D02*
X60017380Y-52466190D01*
X60969761Y-52466190D02*
X61017380Y-52561428D01*
X61017380Y-52751904D01*
X60969761Y-52847142D01*
X60922142Y-52894761D01*
X60826904Y-52942380D01*
X60541190Y-52942380D01*
X60445952Y-52894761D01*
X60398333Y-52847142D01*
X60350714Y-52751904D01*
X60350714Y-52561428D01*
X60398333Y-52466190D01*
X60969761Y-51609047D02*
X61017380Y-51704285D01*
X61017380Y-51894761D01*
X60969761Y-51990000D01*
X60874523Y-52037619D01*
X60493571Y-52037619D01*
X60398333Y-51990000D01*
X60350714Y-51894761D01*
X60350714Y-51704285D01*
X60398333Y-51609047D01*
X60493571Y-51561428D01*
X60588809Y-51561428D01*
X60684047Y-52037619D01*
X61017380Y-50370952D02*
X60350714Y-50370952D01*
X60017380Y-50370952D02*
X60065000Y-50418571D01*
X60112619Y-50370952D01*
X60065000Y-50323333D01*
X60017380Y-50370952D01*
X60112619Y-50370952D01*
X60350714Y-49894761D02*
X61017380Y-49894761D01*
X60445952Y-49894761D02*
X60398333Y-49847142D01*
X60350714Y-49751904D01*
X60350714Y-49609047D01*
X60398333Y-49513809D01*
X60493571Y-49466190D01*
X61017380Y-49466190D01*
X61017380Y-48228095D02*
X60017380Y-48228095D01*
X61017380Y-47656666D01*
X60017380Y-47656666D01*
X60969761Y-46799523D02*
X61017380Y-46894761D01*
X61017380Y-47085238D01*
X60969761Y-47180476D01*
X60874523Y-47228095D01*
X60493571Y-47228095D01*
X60398333Y-47180476D01*
X60350714Y-47085238D01*
X60350714Y-46894761D01*
X60398333Y-46799523D01*
X60493571Y-46751904D01*
X60588809Y-46751904D01*
X60684047Y-47228095D01*
X60350714Y-46418571D02*
X61017380Y-46228095D01*
X60541190Y-46037619D01*
X61017380Y-45847142D01*
X60350714Y-45656666D01*
X60017380Y-44609047D02*
X60017380Y-43942380D01*
X61017380Y-44609047D01*
X61017380Y-43942380D01*
X60969761Y-43180476D02*
X61017380Y-43275714D01*
X61017380Y-43466190D01*
X60969761Y-43561428D01*
X60874523Y-43609047D01*
X60493571Y-43609047D01*
X60398333Y-43561428D01*
X60350714Y-43466190D01*
X60350714Y-43275714D01*
X60398333Y-43180476D01*
X60493571Y-43132857D01*
X60588809Y-43132857D01*
X60684047Y-43609047D01*
X61017380Y-42275714D02*
X60493571Y-42275714D01*
X60398333Y-42323333D01*
X60350714Y-42418571D01*
X60350714Y-42609047D01*
X60398333Y-42704285D01*
X60969761Y-42275714D02*
X61017380Y-42370952D01*
X61017380Y-42609047D01*
X60969761Y-42704285D01*
X60874523Y-42751904D01*
X60779285Y-42751904D01*
X60684047Y-42704285D01*
X60636428Y-42609047D01*
X60636428Y-42370952D01*
X60588809Y-42275714D01*
X61017380Y-41656666D02*
X60969761Y-41751904D01*
X60874523Y-41799523D01*
X60017380Y-41799523D01*
X61017380Y-40847142D02*
X60493571Y-40847142D01*
X60398333Y-40894761D01*
X60350714Y-40990000D01*
X60350714Y-41180476D01*
X60398333Y-41275714D01*
X60969761Y-40847142D02*
X61017380Y-40942380D01*
X61017380Y-41180476D01*
X60969761Y-41275714D01*
X60874523Y-41323333D01*
X60779285Y-41323333D01*
X60684047Y-41275714D01*
X60636428Y-41180476D01*
X60636428Y-40942380D01*
X60588809Y-40847142D01*
X60350714Y-40370952D02*
X61017380Y-40370952D01*
X60445952Y-40370952D02*
X60398333Y-40323333D01*
X60350714Y-40228095D01*
X60350714Y-40085238D01*
X60398333Y-39990000D01*
X60493571Y-39942380D01*
X61017380Y-39942380D01*
X61017380Y-39037619D02*
X60017380Y-39037619D01*
X60969761Y-39037619D02*
X61017380Y-39132857D01*
X61017380Y-39323333D01*
X60969761Y-39418571D01*
X60922142Y-39466190D01*
X60826904Y-39513809D01*
X60541190Y-39513809D01*
X60445952Y-39466190D01*
X60398333Y-39418571D01*
X60350714Y-39323333D01*
X60350714Y-39132857D01*
X60398333Y-39037619D01*
D12*
%TO.C,R1*%
X57880000Y-73430000D02*
X57880000Y-73760000D01*
X57880000Y-73760000D02*
X51340000Y-73760000D01*
X51340000Y-73760000D02*
X51340000Y-73430000D01*
X57880000Y-71350000D02*
X57880000Y-71020000D01*
X57880000Y-71020000D02*
X51340000Y-71020000D01*
X51340000Y-71020000D02*
X51340000Y-71350000D01*
%TO.C,L2*%
X52070000Y-90420000D02*
X58420000Y-90420000D01*
X52070000Y-86620000D02*
X52070000Y-90420000D01*
X64770000Y-90420000D02*
X58420000Y-90420000D01*
X64770000Y-86620000D02*
X64770000Y-90420000D01*
X64770000Y-77220000D02*
X58420000Y-77220000D01*
X64770000Y-81020000D02*
X64770000Y-77220000D01*
X52070000Y-77220000D02*
X58420000Y-77220000D01*
X52070000Y-81020000D02*
X52070000Y-77220000D01*
%TO.C,L1*%
X82550000Y-77220000D02*
X76200000Y-77220000D01*
X82550000Y-81020000D02*
X82550000Y-77220000D01*
X69850000Y-77220000D02*
X76200000Y-77220000D01*
X69850000Y-81020000D02*
X69850000Y-77220000D01*
X69850000Y-90420000D02*
X76200000Y-90420000D01*
X69850000Y-86620000D02*
X69850000Y-90420000D01*
X82550000Y-90420000D02*
X76200000Y-90420000D01*
X82550000Y-86620000D02*
X82550000Y-90420000D01*
%TO.C,J5*%
X44450000Y-38610000D02*
X45780000Y-38610000D01*
X45780000Y-38610000D02*
X45780000Y-39370000D01*
X45780000Y-40005000D02*
X45780000Y-41335000D01*
X44757530Y-41335000D02*
X45780000Y-41335000D01*
X43120000Y-41335000D02*
X44142470Y-41335000D01*
X43120000Y-40005000D02*
X43120000Y-41335000D01*
X45210000Y-40005000D02*
X45780000Y-40005000D01*
X43120000Y-40005000D02*
X43690000Y-40005000D01*
%TO.C,J4*%
X90680000Y-88900000D02*
X90680000Y-87570000D01*
X90680000Y-87570000D02*
X91440000Y-87570000D01*
X92075000Y-87570000D02*
X93405000Y-87570000D01*
X93405000Y-88592470D02*
X93405000Y-87570000D01*
X93405000Y-90230000D02*
X93405000Y-89207530D01*
X92075000Y-90230000D02*
X93405000Y-90230000D01*
X92075000Y-88140000D02*
X92075000Y-87570000D01*
X92075000Y-90230000D02*
X92075000Y-89660000D01*
%TO.C,J3*%
X31750000Y-56390000D02*
X33080000Y-56390000D01*
X33080000Y-56390000D02*
X33080000Y-57150000D01*
X33080000Y-57785000D02*
X33080000Y-61655000D01*
X32057530Y-61655000D02*
X33080000Y-61655000D01*
X30420000Y-61655000D02*
X31442470Y-61655000D01*
X30420000Y-57785000D02*
X30420000Y-61655000D01*
X32510000Y-57785000D02*
X33080000Y-57785000D01*
X30420000Y-57785000D02*
X30990000Y-57785000D01*
%TO.C,J2*%
X31750000Y-47500000D02*
X33080000Y-47500000D01*
X33080000Y-47500000D02*
X33080000Y-48260000D01*
X33080000Y-48895000D02*
X33080000Y-52765000D01*
X32057530Y-52765000D02*
X33080000Y-52765000D01*
X30420000Y-52765000D02*
X31442470Y-52765000D01*
X30420000Y-48895000D02*
X30420000Y-52765000D01*
X32510000Y-48895000D02*
X33080000Y-48895000D01*
X30420000Y-48895000D02*
X30990000Y-48895000D01*
%TO.C,J1*%
X38100000Y-38610000D02*
X39430000Y-38610000D01*
X39430000Y-38610000D02*
X39430000Y-39370000D01*
X39430000Y-40005000D02*
X39430000Y-41335000D01*
X38407530Y-41335000D02*
X39430000Y-41335000D01*
X36770000Y-41335000D02*
X37792470Y-41335000D01*
X36770000Y-40005000D02*
X36770000Y-41335000D01*
X38860000Y-40005000D02*
X39430000Y-40005000D01*
X36770000Y-40005000D02*
X37340000Y-40005000D01*
%TO.C,C4*%
X115000000Y-81280000D02*
X113060000Y-81280000D01*
X92880000Y-81280000D02*
X94820000Y-81280000D01*
X98420000Y-85400000D02*
X113060000Y-85400000D01*
X97520000Y-84500000D02*
X98420000Y-85400000D01*
X96620000Y-85400000D02*
X97520000Y-84500000D01*
X94820000Y-85400000D02*
X96620000Y-85400000D01*
X98420000Y-77160000D02*
X113060000Y-77160000D01*
X97520000Y-78060000D02*
X98420000Y-77160000D01*
X96620000Y-77160000D02*
X97520000Y-78060000D01*
X94820000Y-77160000D02*
X96620000Y-77160000D01*
X113060000Y-77160000D02*
X113060000Y-85400000D01*
X94820000Y-77160000D02*
X94820000Y-85400000D01*
X93620000Y-77780000D02*
X93620000Y-79580000D01*
X92720000Y-78680000D02*
X94520000Y-78680000D01*
D13*
%TO.C,C3*%
X64810000Y-38390000D02*
X122310000Y-38390000D01*
X122310000Y-38390000D02*
X122310000Y-73390000D01*
X122310000Y-73390000D02*
X64810000Y-73390000D01*
X64810000Y-73390000D02*
X64810000Y-38390000D01*
D14*
X63610000Y-66040000D02*
X63610000Y-66040000D01*
X63710000Y-66040000D02*
X63710000Y-66040000D01*
X63610000Y-66040000D02*
X63610000Y-66040000D01*
X63710000Y-66040000D02*
G75*
G02*
X63610000Y-66040000I-50000J0D01*
G01*
X63610000Y-66040000D02*
G75*
G02*
X63710000Y-66040000I50000J0D01*
G01*
X63710000Y-66040000D02*
G75*
G02*
X63610000Y-66040000I-50000J0D01*
G01*
%TO.C,C2*%
X39960000Y-65955000D02*
X39960000Y-47580000D01*
X56560000Y-60030000D02*
X56560000Y-47580000D01*
%TO.C,C1*%
X29800000Y-88815000D02*
X29800000Y-70440000D01*
X46400000Y-82890000D02*
X46400000Y-70440000D01*
%TO.C,R1*%
D10*
X54443333Y-75212380D02*
X54110000Y-74736190D01*
X53871904Y-75212380D02*
X53871904Y-74212380D01*
X54252857Y-74212380D01*
X54348095Y-74260000D01*
X54395714Y-74307619D01*
X54443333Y-74402857D01*
X54443333Y-74545714D01*
X54395714Y-74640952D01*
X54348095Y-74688571D01*
X54252857Y-74736190D01*
X53871904Y-74736190D01*
X55395714Y-75212380D02*
X54824285Y-75212380D01*
X55110000Y-75212380D02*
X55110000Y-74212380D01*
X55014761Y-74355238D01*
X54919523Y-74450476D01*
X54824285Y-74498095D01*
%TO.C,L2*%
X58253333Y-76772380D02*
X57777142Y-76772380D01*
X57777142Y-75772380D01*
X58539047Y-75867619D02*
X58586666Y-75820000D01*
X58681904Y-75772380D01*
X58920000Y-75772380D01*
X59015238Y-75820000D01*
X59062857Y-75867619D01*
X59110476Y-75962857D01*
X59110476Y-76058095D01*
X59062857Y-76200952D01*
X58491428Y-76772380D01*
X59110476Y-76772380D01*
%TO.C,L1*%
X76033333Y-91772380D02*
X75557142Y-91772380D01*
X75557142Y-90772380D01*
X76890476Y-91772380D02*
X76319047Y-91772380D01*
X76604761Y-91772380D02*
X76604761Y-90772380D01*
X76509523Y-90915238D01*
X76414285Y-91010476D01*
X76319047Y-91058095D01*
%TO.C,J5*%
X44116666Y-36687380D02*
X44116666Y-37401666D01*
X44069047Y-37544523D01*
X43973809Y-37639761D01*
X43830952Y-37687380D01*
X43735714Y-37687380D01*
X45069047Y-36687380D02*
X44592857Y-36687380D01*
X44545238Y-37163571D01*
X44592857Y-37115952D01*
X44688095Y-37068333D01*
X44926190Y-37068333D01*
X45021428Y-37115952D01*
X45069047Y-37163571D01*
X45116666Y-37258809D01*
X45116666Y-37496904D01*
X45069047Y-37592142D01*
X45021428Y-37639761D01*
X44926190Y-37687380D01*
X44688095Y-37687380D01*
X44592857Y-37639761D01*
X44545238Y-37592142D01*
%TO.C,J4*%
X88757380Y-89233333D02*
X89471666Y-89233333D01*
X89614523Y-89280952D01*
X89709761Y-89376190D01*
X89757380Y-89519047D01*
X89757380Y-89614285D01*
X89090714Y-88328571D02*
X89757380Y-88328571D01*
X88709761Y-88566666D02*
X89424047Y-88804761D01*
X89424047Y-88185714D01*
%TO.C,J3*%
X31416666Y-54467380D02*
X31416666Y-55181666D01*
X31369047Y-55324523D01*
X31273809Y-55419761D01*
X31130952Y-55467380D01*
X31035714Y-55467380D01*
X31797619Y-54467380D02*
X32416666Y-54467380D01*
X32083333Y-54848333D01*
X32226190Y-54848333D01*
X32321428Y-54895952D01*
X32369047Y-54943571D01*
X32416666Y-55038809D01*
X32416666Y-55276904D01*
X32369047Y-55372142D01*
X32321428Y-55419761D01*
X32226190Y-55467380D01*
X31940476Y-55467380D01*
X31845238Y-55419761D01*
X31797619Y-55372142D01*
%TO.C,J2*%
X31416666Y-45577380D02*
X31416666Y-46291666D01*
X31369047Y-46434523D01*
X31273809Y-46529761D01*
X31130952Y-46577380D01*
X31035714Y-46577380D01*
X31845238Y-45672619D02*
X31892857Y-45625000D01*
X31988095Y-45577380D01*
X32226190Y-45577380D01*
X32321428Y-45625000D01*
X32369047Y-45672619D01*
X32416666Y-45767857D01*
X32416666Y-45863095D01*
X32369047Y-46005952D01*
X31797619Y-46577380D01*
X32416666Y-46577380D01*
%TO.C,J1*%
X37766666Y-36687380D02*
X37766666Y-37401666D01*
X37719047Y-37544523D01*
X37623809Y-37639761D01*
X37480952Y-37687380D01*
X37385714Y-37687380D01*
X38766666Y-37687380D02*
X38195238Y-37687380D01*
X38480952Y-37687380D02*
X38480952Y-36687380D01*
X38385714Y-36830238D01*
X38290476Y-36925476D01*
X38195238Y-36973095D01*
%TO.C,C4*%
X103773333Y-76517142D02*
X103725714Y-76564761D01*
X103582857Y-76612380D01*
X103487619Y-76612380D01*
X103344761Y-76564761D01*
X103249523Y-76469523D01*
X103201904Y-76374285D01*
X103154285Y-76183809D01*
X103154285Y-76040952D01*
X103201904Y-75850476D01*
X103249523Y-75755238D01*
X103344761Y-75660000D01*
X103487619Y-75612380D01*
X103582857Y-75612380D01*
X103725714Y-75660000D01*
X103773333Y-75707619D01*
X104630476Y-75945714D02*
X104630476Y-76612380D01*
X104392380Y-75564761D02*
X104154285Y-76279047D01*
X104773333Y-76279047D01*
%TO.C,C3*%
D15*
X92748333Y-56343571D02*
X92687857Y-56404047D01*
X92506428Y-56464523D01*
X92385476Y-56464523D01*
X92204047Y-56404047D01*
X92083095Y-56283095D01*
X92022619Y-56162142D01*
X91962142Y-55920238D01*
X91962142Y-55738809D01*
X92022619Y-55496904D01*
X92083095Y-55375952D01*
X92204047Y-55255000D01*
X92385476Y-55194523D01*
X92506428Y-55194523D01*
X92687857Y-55255000D01*
X92748333Y-55315476D01*
X93171666Y-55194523D02*
X93957857Y-55194523D01*
X93534523Y-55678333D01*
X93715952Y-55678333D01*
X93836904Y-55738809D01*
X93897380Y-55799285D01*
X93957857Y-55920238D01*
X93957857Y-56222619D01*
X93897380Y-56343571D01*
X93836904Y-56404047D01*
X93715952Y-56464523D01*
X93353095Y-56464523D01*
X93232142Y-56404047D01*
X93171666Y-56343571D01*
%TO.C,C2*%
X48713571Y-56091666D02*
X48774047Y-56152142D01*
X48834523Y-56333571D01*
X48834523Y-56454523D01*
X48774047Y-56635952D01*
X48653095Y-56756904D01*
X48532142Y-56817380D01*
X48290238Y-56877857D01*
X48108809Y-56877857D01*
X47866904Y-56817380D01*
X47745952Y-56756904D01*
X47625000Y-56635952D01*
X47564523Y-56454523D01*
X47564523Y-56333571D01*
X47625000Y-56152142D01*
X47685476Y-56091666D01*
X47685476Y-55607857D02*
X47625000Y-55547380D01*
X47564523Y-55426428D01*
X47564523Y-55124047D01*
X47625000Y-55003095D01*
X47685476Y-54942619D01*
X47806428Y-54882142D01*
X47927380Y-54882142D01*
X48108809Y-54942619D01*
X48834523Y-55668333D01*
X48834523Y-54882142D01*
%TO.C,C1*%
X38553571Y-78951666D02*
X38614047Y-79012142D01*
X38674523Y-79193571D01*
X38674523Y-79314523D01*
X38614047Y-79495952D01*
X38493095Y-79616904D01*
X38372142Y-79677380D01*
X38130238Y-79737857D01*
X37948809Y-79737857D01*
X37706904Y-79677380D01*
X37585952Y-79616904D01*
X37465000Y-79495952D01*
X37404523Y-79314523D01*
X37404523Y-79193571D01*
X37465000Y-79012142D01*
X37525476Y-78951666D01*
X38674523Y-77742142D02*
X38674523Y-78467857D01*
X38674523Y-78105000D02*
X37404523Y-78105000D01*
X37585952Y-78225952D01*
X37706904Y-78346904D01*
X37767380Y-78467857D01*
%TD*%
M02*
