M48
; DRILL file {KiCad (5.1.10)-1} date 08/16/21 14:19:06
; FORMAT={-:-/ absolute / inch / decimal}
; #@! TF.CreationDate,2021-08-16T14:19:06+12:00
; #@! TF.GenerationSoftware,Kicad,Pcbnew,(5.1.10)-1
; #@! TF.FileFunction,Plated,1,2,PTH
FMAT,2
INCH
T1C0.0157
T2C0.0276
T3C0.0315
T4C0.0472
T5C0.0571
%
G90
G05
T1
X1.5Y-3.05
X1.6Y-1.55
X2.0882Y-1.9382
T2
X1.25Y-1.9
X1.25Y-1.95
X1.25Y-2.0
X1.25Y-2.05
X1.25Y-2.25
X1.25Y-2.3
X1.25Y-2.35
X1.25Y-2.4
X1.5Y-1.55
X1.5Y-1.6
X1.75Y-1.55
X1.75Y-1.6
X3.6Y-3.5
X3.65Y-3.5
T3
X2.0Y-2.85
X2.3Y-2.85
T4
X3.6Y-3.2
X4.5843Y-3.2
T5
X2.65Y-1.8008
X2.65Y-2.6
X4.7169Y-1.8008
X4.7169Y-2.6
T0
M30
